<?xml version="1.0" encoding="UTF-8" standalone="no"?>
<!-- Created with Inkscape (http://www.inkscape.org/) -->

<svg
   xmlns:dc="http://purl.org/dc/elements/1.1/"
   xmlns:cc="http://creativecommons.org/ns#"
   xmlns:rdf="http://www.w3.org/1999/02/22-rdf-syntax-ns#"
   xmlns:svg="http://www.w3.org/2000/svg"
   xmlns="http://www.w3.org/2000/svg"
   xmlns:xlink="http://www.w3.org/1999/xlink"
   xmlns:sodipodi="http://sodipodi.sourceforge.net/DTD/sodipodi-0.dtd"
   xmlns:inkscape="http://www.inkscape.org/namespaces/inkscape"
   width="128"
   height="128"
   id="svg2998"
   version="1.1"
   inkscape:version="0.48.3.1 r9886"
   sodipodi:docname="logo.svg"
   inkscape:export-filename="/home/nino/prog/howl/share/logo.png"
   inkscape:export-xdpi="90"
   inkscape:export-ydpi="90">
  <defs
     id="defs3000">
    <linearGradient
       id="linearGradient5247">
      <stop
         style="stop-color:#374ec8;stop-opacity:1;"
         offset="0"
         id="stop5249" />
      <stop
         style="stop-color:#3742c8;stop-opacity:0;"
         offset="1"
         id="stop5251" />
    </linearGradient>
    <linearGradient
       inkscape:collect="always"
       xlink:href="#linearGradient5247"
       id="linearGradient5253"
       x1="16.161621"
       y1="255.39249"
       x2="329.29294"
       y2="255.39249"
       gradientUnits="userSpaceOnUse" />
    <linearGradient
       inkscape:collect="always"
       xlink:href="#linearGradient5247-9"
       id="linearGradient5253-3"
       x1="16.161621"
       y1="255.39249"
       x2="329.29294"
       y2="255.39249"
       gradientUnits="userSpaceOnUse" />
    <linearGradient
       id="linearGradient5247-9">
      <stop
         style="stop-color:#374ec8;stop-opacity:1;"
         offset="0"
         id="stop5249-7" />
      <stop
         style="stop-color:#3742c8;stop-opacity:0;"
         offset="1"
         id="stop5251-2" />
    </linearGradient>
    <linearGradient
       y2="255.39249"
       x2="329.29294"
       y1="255.39249"
       x1="16.161621"
       gradientUnits="userSpaceOnUse"
       id="linearGradient5274"
       xlink:href="#linearGradient5247-9"
       inkscape:collect="always" />
    <clipPath
       clipPathUnits="userSpaceOnUse"
       id="clipPath5293">
      <path
         sodipodi:type="arc"
         style="fill:url(#linearGradient5297);fill-opacity:1;fill-rule:nonzero"
         id="path5295"
         sodipodi:cx="172.72728"
         sodipodi:cy="255.39249"
         sodipodi:rx="156.56566"
         sodipodi:ry="156.56566"
         d="m 329.29294,255.39249 a 156.56566,156.56566 0 1 1 -313.131319,0 156.56566,156.56566 0 1 1 313.131319,0 z"
         transform="translate(109.0909,268.68687)" />
    </clipPath>
    <linearGradient
       inkscape:collect="always"
       xlink:href="#linearGradient5247-9"
       id="linearGradient5297"
       gradientUnits="userSpaceOnUse"
       x1="16.161621"
       y1="255.39249"
       x2="329.29294"
       y2="255.39249" />
    <linearGradient
       inkscape:collect="always"
       xlink:href="#linearGradient5247"
       id="linearGradient5379"
       gradientUnits="userSpaceOnUse"
       x1="16.161621"
       y1="255.39249"
       x2="329.29294"
       y2="255.39249" />
  </defs>
  <sodipodi:namedview
     id="base"
     pagecolor="#ffffff"
     bordercolor="#666666"
     borderopacity="1.0"
     inkscape:pageopacity="0.0"
     inkscape:pageshadow="2"
     inkscape:zoom="0.99"
     inkscape:cx="-98.222182"
     inkscape:cy="75.012935"
     inkscape:document-units="px"
     inkscape:current-layer="layer1"
     showgrid="false"
     inkscape:window-width="1920"
     inkscape:window-height="1056"
     inkscape:window-x="0"
     inkscape:window-y="24"
     inkscape:window-maximized="1"
     fit-margin-top="0"
     fit-margin-left="0"
     fit-margin-right="0"
     fit-margin-bottom="0" />
  <metadata
     id="metadata3003">
    <rdf:RDF>
      <cc:Work
         rdf:about="">
        <dc:format>image/svg+xml</dc:format>
        <dc:type
           rdf:resource="http://purl.org/dc/dcmitype/StillImage" />
        <dc:title></dc:title>
      </cc:Work>
    </rdf:RDF>
  </metadata>
  <g
     inkscape:label="Layer 1"
     inkscape:groupmode="layer"
     id="layer1"
     transform="translate(-244.08082,-314.62481)">
    <g
       id="g5375"
       transform="matrix(0.40877419,0,0,0.40877419,182.14533,223.85276)">
      <path
         transform="translate(135.35354,123.23233)"
         d="m 329.29294,255.39249 c 0,86.46882 -70.09683,156.56566 -156.56566,156.56566 -86.468826,0 -156.565659,-70.09684 -156.565659,-156.56566 0,-86.46883 70.096833,-156.565662 156.565659,-156.565662 86.46883,0 156.56566,70.096832 156.56566,156.565662 z"
         sodipodi:ry="156.56566"
         sodipodi:rx="156.56566"
         sodipodi:cy="255.39249"
         sodipodi:cx="172.72728"
         id="path3019"
         style="fill:url(#linearGradient5379);fill-opacity:1;fill-rule:nonzero"
         sodipodi:type="arc" />
      <path
         transform="translate(26.242424,-145.45455)"
         clip-path="url(#clipPath5293)"
         sodipodi:nodetypes="cssssssscccsssccssssssssssssssc"
         id="path4352"
         d="m 323.10277,410.28905 c -0.96531,0 -6.13538,7.04445 -11.46875,15.625 -14.35928,23.10172 -38.50655,54.10055 -43.6875,56.09375 -2.49264,0.95895 -7.42954,2.00166 -10.96875,2.3125 -6.5094,0.57172 -14.52457,7.47502 -32.3125,27.8125 -7.68492,8.78639 -12.87527,12.1042 -26.09375,16.65625 -10.15965,3.49868 -19.03974,8.38404 -23.09375,12.71875 -6.02811,6.44546 -6.30745,7.47493 -3.375,12.40625 1.76156,2.96229 8.93804,8.49856 15.9375,12.28125 l 12.71875,6.875 -3.1875,11.28125 c -1.76317,6.21187 -3.23648,14.68 -3.25,18.8125 -0.0135,4.1325 -2.40285,12.32542 -5.3125,18.1875 -5.61068,11.30379 -13.58786,41.66509 -14.75,56.125 -0.40694,5.06363 -20.60041,27.23292 -25.01094,27.23294 92.22148,0 112.13597,0 195.33359,0 -0.0345,-7.71922 -1.92028,-18.71026 -2.94765,-19.38919 -2.80889,-1.85615 0.0288,-30.72649 3.625,-36.875 4.76457,-8.14629 3.77515,-22.99326 -2.5,-37.40625 -4.65889,-10.70071 -5.66926,-16.67847 -5.6875,-34.28125 -0.0142,-13.62847 1.14978,-23.69283 3.1875,-27.90625 1.75337,-3.6254 4.30108,-13.00525 5.65625,-20.84375 2.59798,-15.02682 11.0476,-32.97679 18.03125,-38.25 6.99815,-5.28415 10.6499,-19.4736 7.25,-28.25 -4.00649,-10.34219 -8.31391,-13.84317 -12.46875,-10.15625 -2.41128,2.13974 -4.45105,2.19593 -7.90625,0.21875 -4.08266,-2.33626 -4.60882,-2.01314 -4.125,2.59375 0.30392,2.894 -0.81067,5.79955 -2.5,6.4375 -2.38632,0.90114 -2.78402,-1.05323 -1.78125,-8.71875 0.70987,-5.42665 0.14996,-13.45108 -1.21875,-17.84375 -2.42397,-7.77919 -14.57866,-23.75 -18.09375,-23.75 z"
         style="fill:#002255;fill-opacity:1;stroke:none;display:inline"
         inkscape:connector-curvature="0" />
    </g>
  </g>
</svg>
